M48
; DRILL file {KiCad (6.0.1)} date Wed Nov  8 16:04:22 2023
; FORMAT={-:-/ absolute / metric / decimal}
; #@! TF.CreationDate,2023-11-08T16:04:22-05:00
; #@! TF.GenerationSoftware,Kicad,Pcbnew,(6.0.1)
; #@! TF.FileFunction,Plated,1,2,PTH
FMAT,2
METRIC
; #@! TA.AperFunction,Plated,PTH,ComponentDrill
T1C0.900
; #@! TA.AperFunction,Plated,PTH,ComponentDrill
T2C1.400
%
G90
G05
T1
X166.08Y-69.596
X166.08Y-72.136
X166.116Y-83.312
X166.116Y-88.392
X173.228Y-75.692
X173.228Y-78.232
X173.301Y-83.312
X173.301Y-88.392
X180.376Y-69.596
X180.376Y-72.136
X180.485Y-83.312
X180.485Y-88.392
X187.523Y-75.692
X187.523Y-78.232
X187.67Y-83.312
X187.67Y-88.392
X194.671Y-69.596
X194.671Y-72.136
X194.854Y-83.312
X194.854Y-88.392
X201.818Y-75.692
X201.818Y-78.232
X202.039Y-83.312
X202.039Y-88.392
X208.966Y-69.596
X208.966Y-72.136
X209.223Y-83.312
X209.223Y-88.392
X216.113Y-75.692
X216.113Y-78.232
X216.408Y-83.312
X216.408Y-88.392
T2
X190.724Y-100.584
X193.264Y-100.584
T0
M30
