%TF.GenerationSoftware,KiCad,Pcbnew,(6.0.1)*%
%TF.CreationDate,2023-11-08T16:04:03-05:00*%
%TF.ProjectId,Resistance1,52657369-7374-4616-9e63-65312e6b6963,rev?*%
%TF.SameCoordinates,Original*%
%TF.FileFunction,Copper,L1,Top*%
%TF.FilePolarity,Positive*%
%FSLAX46Y46*%
G04 Gerber Fmt 4.6, Leading zero omitted, Abs format (unit mm)*
G04 Created by KiCad (PCBNEW (6.0.1)) date 2023-11-08 16:04:03*
%MOMM*%
%LPD*%
G01*
G04 APERTURE LIST*
%TA.AperFunction,ComponentPad*%
%ADD10R,2.000000X2.000000*%
%TD*%
%TA.AperFunction,ComponentPad*%
%ADD11C,2.000000*%
%TD*%
%TA.AperFunction,ComponentPad*%
%ADD12O,2.000000X2.000000*%
%TD*%
%TA.AperFunction,ComponentPad*%
%ADD13C,2.100000*%
%TD*%
%TA.AperFunction,Conductor*%
%ADD14C,1.000000*%
%TD*%
%TA.AperFunction,Conductor*%
%ADD15C,0.250000*%
%TD*%
G04 APERTURE END LIST*
D10*
%TO.P,D3,1,K*%
%TO.N,Net-(D1-Pad1)*%
X180375571Y-69596000D03*
D11*
%TO.P,D3,2,A*%
%TO.N,Net-(R3-Pad2)*%
X180375571Y-72136000D03*
%TD*%
D10*
%TO.P,D5,1,K*%
%TO.N,Net-(D1-Pad1)*%
X194670713Y-69596000D03*
D11*
%TO.P,D5,2,A*%
%TO.N,Net-(R5-Pad2)*%
X194670713Y-72136000D03*
%TD*%
D10*
%TO.P,D1,1,K*%
%TO.N,Net-(D1-Pad1)*%
X166080429Y-69596000D03*
D11*
%TO.P,D1,2,A*%
%TO.N,Net-(R1-Pad2)*%
X166080429Y-72136000D03*
%TD*%
D10*
%TO.P,D8,1,K*%
%TO.N,Net-(D1-Pad1)*%
X216113429Y-75692000D03*
D11*
%TO.P,D8,2,A*%
%TO.N,Net-(R8-Pad2)*%
X216113429Y-78232000D03*
%TD*%
D10*
%TO.P,D7,1,K*%
%TO.N,Net-(D1-Pad1)*%
X208965855Y-69596000D03*
D11*
%TO.P,D7,2,A*%
%TO.N,Net-(R7-Pad2)*%
X208965855Y-72136000D03*
%TD*%
D10*
%TO.P,D6,1,K*%
%TO.N,Net-(D1-Pad1)*%
X201818284Y-75692000D03*
D11*
%TO.P,D6,2,A*%
%TO.N,Net-(R6-Pad2)*%
X201818284Y-78232000D03*
%TD*%
D10*
%TO.P,D4,1,K*%
%TO.N,Net-(D1-Pad1)*%
X187523142Y-75692000D03*
D11*
%TO.P,D4,2,A*%
%TO.N,Net-(R4-Pad2)*%
X187523142Y-78232000D03*
%TD*%
D10*
%TO.P,D2,1,K*%
%TO.N,Net-(D1-Pad1)*%
X173228000Y-75692000D03*
D11*
%TO.P,D2,2,A*%
%TO.N,Net-(R2-Pad2)*%
X173228000Y-78232000D03*
%TD*%
%TO.P,R8,1*%
%TO.N,Net-(R1-Pad1)*%
X216408000Y-88392000D03*
D12*
%TO.P,R8,2*%
%TO.N,Net-(R8-Pad2)*%
X216408000Y-83312000D03*
%TD*%
D11*
%TO.P,R7,1*%
%TO.N,Net-(R1-Pad1)*%
X209223426Y-88392000D03*
D12*
%TO.P,R7,2*%
%TO.N,Net-(R7-Pad2)*%
X209223426Y-83312000D03*
%TD*%
D11*
%TO.P,R6,1*%
%TO.N,Net-(R1-Pad1)*%
X202038855Y-88392000D03*
D12*
%TO.P,R6,2*%
%TO.N,Net-(R6-Pad2)*%
X202038855Y-83312000D03*
%TD*%
D11*
%TO.P,R5,1*%
%TO.N,Net-(R1-Pad1)*%
X194854284Y-88392000D03*
D12*
%TO.P,R5,2*%
%TO.N,Net-(R5-Pad2)*%
X194854284Y-83312000D03*
%TD*%
D11*
%TO.P,R4,1*%
%TO.N,Net-(R1-Pad1)*%
X187669713Y-88392000D03*
D12*
%TO.P,R4,2*%
%TO.N,Net-(R4-Pad2)*%
X187669713Y-83312000D03*
%TD*%
D11*
%TO.P,R3,1*%
%TO.N,Net-(R1-Pad1)*%
X180485142Y-88392000D03*
D12*
%TO.P,R3,2*%
%TO.N,Net-(R3-Pad2)*%
X180485142Y-83312000D03*
%TD*%
D11*
%TO.P,R2,1*%
%TO.N,Net-(R1-Pad1)*%
X173300571Y-88392000D03*
D12*
%TO.P,R2,2*%
%TO.N,Net-(R2-Pad2)*%
X173300571Y-83312000D03*
%TD*%
D11*
%TO.P,R1,1*%
%TO.N,Net-(R1-Pad1)*%
X166116000Y-88392000D03*
D12*
%TO.P,R1,2*%
%TO.N,Net-(R1-Pad2)*%
X166116000Y-83312000D03*
%TD*%
D13*
%TO.P,J2,1,Pin_1*%
%TO.N,Net-(D1-Pad1)*%
X190724000Y-100584000D03*
%TO.P,J2,2,Pin_2*%
%TO.N,Net-(R1-Pad1)*%
X193264000Y-100584000D03*
%TD*%
D14*
%TO.N,Net-(D1-Pad1)*%
X162560000Y-69596000D02*
X166080429Y-69596000D01*
X161544000Y-89408000D02*
X161544000Y-70612000D01*
X161544000Y-70612000D02*
X162560000Y-69596000D01*
X182088000Y-91948000D02*
X164084000Y-91948000D01*
X164084000Y-91948000D02*
X161544000Y-89408000D01*
X190724000Y-100584000D02*
X182088000Y-91948000D01*
%TO.N,Net-(R1-Pad1)*%
X193264000Y-89982284D02*
X194854284Y-88392000D01*
X193264000Y-100584000D02*
X193264000Y-89982284D01*
X209223426Y-88392000D02*
X216408000Y-88392000D01*
X202038855Y-88392000D02*
X209223426Y-88392000D01*
X194854284Y-88392000D02*
X202038855Y-88392000D01*
X187669713Y-88392000D02*
X194854284Y-88392000D01*
X180485142Y-88392000D02*
X187669713Y-88392000D01*
X173300571Y-88392000D02*
X180485142Y-88392000D01*
X166116000Y-88392000D02*
X173300571Y-88392000D01*
D15*
%TO.N,Net-(R1-Pad2)*%
X166080429Y-83276429D02*
X166116000Y-83312000D01*
D14*
X166080429Y-72136000D02*
X166080429Y-83276429D01*
%TO.N,Net-(R2-Pad2)*%
X173228000Y-78232000D02*
X173228000Y-83239429D01*
D15*
X173228000Y-83239429D02*
X173300571Y-83312000D01*
%TO.N,Net-(R3-Pad2)*%
X180375571Y-83202429D02*
X180485142Y-83312000D01*
D14*
X180375571Y-72136000D02*
X180375571Y-83202429D01*
D15*
%TO.N,Net-(R4-Pad2)*%
X187523142Y-83165429D02*
X187669713Y-83312000D01*
D14*
X187523142Y-78232000D02*
X187523142Y-83165429D01*
D15*
%TO.N,Net-(R5-Pad2)*%
X194670713Y-83128429D02*
X194854284Y-83312000D01*
D14*
X194670713Y-72136000D02*
X194670713Y-83128429D01*
D15*
%TO.N,Net-(R6-Pad2)*%
X201818284Y-83091429D02*
X202038855Y-83312000D01*
D14*
X201818284Y-78232000D02*
X201818284Y-83091429D01*
D15*
%TO.N,Net-(R7-Pad2)*%
X208965855Y-83054429D02*
X209223426Y-83312000D01*
D14*
X208965855Y-72136000D02*
X208965855Y-83054429D01*
D15*
%TO.N,Net-(R8-Pad2)*%
X216113429Y-83017429D02*
X216408000Y-83312000D01*
D14*
X216113429Y-78232000D02*
X216113429Y-83017429D01*
%TO.N,Net-(D1-Pad1)*%
X216113429Y-73873429D02*
X216113429Y-75692000D01*
X211836000Y-69596000D02*
X216113429Y-73873429D01*
X208965855Y-69596000D02*
X211836000Y-69596000D01*
X208965855Y-69596000D02*
X205740000Y-69596000D01*
X205740000Y-69596000D02*
X201676000Y-73660000D01*
X197612000Y-69596000D02*
X201676000Y-73660000D01*
D15*
X201676000Y-73660000D02*
X201818284Y-73802284D01*
D14*
X201818284Y-73802284D02*
X201818284Y-75692000D01*
X194670713Y-69596000D02*
X197612000Y-69596000D01*
X191658284Y-69596000D02*
X187523142Y-73731142D01*
X194670713Y-69596000D02*
X191658284Y-69596000D01*
X187523142Y-73731142D02*
X187523142Y-75692000D01*
X183388000Y-69596000D02*
X187523142Y-73731142D01*
X180375571Y-69596000D02*
X183388000Y-69596000D01*
X177292000Y-69596000D02*
X173228000Y-73660000D01*
X180375571Y-69596000D02*
X177292000Y-69596000D01*
X169164000Y-69596000D02*
X173228000Y-73660000D01*
X166080429Y-69596000D02*
X169164000Y-69596000D01*
X173228000Y-73660000D02*
X173228000Y-75692000D01*
%TD*%
M02*
